<?xml version="1.0" encoding="UTF-8"?><svg id="Capa_1" xmlns="http://www.w3.org/2000/svg" viewBox="0 0 196.16 50.48"><defs><style>.cls-1{fill:#fff;}.cls-2{fill:#009eff;}.cls-3{fill:#e4051e;}.cls-4{fill:#0070f0;}.cls-5{opacity:.58;}</style></defs><g><g><rect class="cls-1" x="22.48" y="7.32" width="32.58" height="21.65" rx="2.11" ry="2.11" transform="translate(12.05 51.58) rotate(-76.45)"/><path class="cls-4" d="M43.92,36.28c-.18,0-.36-.02-.54-.06l-16.95-4.08c-1.24-.3-2-1.55-1.7-2.79L31.37,1.77c.3-1.24,1.55-2,2.79-1.7l16.95,4.08c.6,.14,1.1,.51,1.43,1.04,.32,.53,.42,1.15,.28,1.74l-6.64,27.58c-.14,.6-.51,1.1-1.04,1.43-.37,.23-.78,.34-1.2,.34ZM33.61,.41c-.86,0-1.64,.59-1.85,1.46l-6.64,27.58c-.25,1.02,.38,2.05,1.4,2.29l16.95,4.08c.49,.12,1,.04,1.44-.23,.43-.27,.74-.68,.86-1.18l6.64-27.58c.12-.49,.04-1-.23-1.44-.27-.43-.68-.74-1.17-.86L34.06,.46c-.15-.04-.3-.05-.45-.05Z"/></g><rect class="cls-4" x="23.31" y="8.32" width="30.66" height="19.65" rx="2.11" ry="2.11" transform="translate(11.95 51.46) rotate(-76.45)"/><g><rect class="cls-1" x="15.33" y="7.32" width="32.58" height="21.65" rx="2.11" ry="2.11" transform="translate(12.17 48.97) rotate(-87.59)"/><path class="cls-3" d="M39.74,34.98s-.07,0-.1,0l-17.42-.73c-.61-.03-1.18-.29-1.6-.75s-.63-1.04-.61-1.66l1.19-28.34c.03-.61,.29-1.18,.75-1.6,.46-.42,1.04-.63,1.66-.61l17.42,.73c1.27,.05,2.26,1.13,2.21,2.4l-1.19,28.34c-.05,1.24-1.08,2.21-2.31,2.21Zm-.08-.41c1.05,.04,1.94-.77,1.98-1.82l1.19-28.34c.04-1.05-.77-1.94-1.82-1.98l-17.42-.73c-.51-.02-.99,.16-1.37,.5-.38,.34-.59,.81-.62,1.32l-1.19,28.34c-.02,.51,.16,.99,.5,1.37s.81,.59,1.32,.62l17.42,.73Z"/></g><rect class="cls-3" x="16.13" y="8.36" width="30.66" height="19.65" rx="2.11" ry="2.11" transform="translate(11.97 48.85) rotate(-87.59)"/><g><rect class="cls-1" x="14.8" y="3.52" width="21.65" height="32.58" rx="2.11" ry="2.11" transform="translate(-3.96 6.64) rotate(-13.71)"/><path class="cls-4" d="M20.52,37.97c-.42,0-.83-.11-1.2-.34-.53-.32-.9-.83-1.05-1.42L11.55,8.65c-.3-1.24,.46-2.49,1.7-2.79L30.19,1.72c.6-.15,1.22-.05,1.75,.27,.53,.32,.9,.83,1.05,1.42l6.72,27.56c.15,.6,.05,1.22-.27,1.75-.32,.53-.83,.9-1.42,1.05l-16.94,4.13c-.18,.04-.36,.07-.55,.07ZM30.73,2.07c-.15,0-.3,.02-.45,.05L13.34,6.25c-1.02,.25-1.65,1.28-1.4,2.3l6.72,27.56c.12,.49,.43,.91,.86,1.17,.44,.26,.95,.34,1.44,.22l16.94-4.13c.49-.12,.91-.43,1.17-.86,.26-.44,.34-.95,.22-1.44L32.58,3.52c-.12-.49-.43-.91-.86-1.17-.3-.18-.64-.28-.99-.28Z"/></g><rect class="cls-4" x="15.83" y="4.47" width="19.65" height="30.66" rx="2.11" ry="2.11" transform="translate(-3.96 6.64) rotate(-13.71)"/></g><g><path class="cls-4" d="M58.93,36.29c.31-.94,.71-2.12,1.18-3.54,.47-1.42,.98-2.95,1.53-4.6,.55-1.65,1.13-3.38,1.75-5.19,.61-1.81,1.2-3.57,1.77-5.29,.57-1.71,1.09-3.33,1.58-4.84,.49-1.51,.9-2.82,1.25-3.92l-2.55-1.93c-.22-.16-.29-.35-.21-.59,.08-.24,.24-.35,.5-.35h41.62l-2.27,6.56c-.16,.44-.42,.79-.8,1.04-.38,.25-.79,.38-1.23,.38h-28.74c-.25,0-.42,.12-.5,.35-.08,.24-.04,.43,.12,.59l2.6,2.36c-.47,1.32-.87,2.48-1.2,3.47s-.7,2.07-1.11,3.23c-.41,1.16-.78,2.24-1.11,3.23s-.73,2.15-1.2,3.47c-.06,.25,.06,.38,.38,.38h14.91c.57,0,.91-.2,1.04-.61l1.79-5.19h-2.88c-.66,0-1.18-.22-1.56-.66l-4.62-5.1c-.16-.16-.19-.35-.09-.57,.09-.22,.27-.33,.52-.33h21.94s-.11,.38-.33,1.04c-.22,.66-.5,1.47-.83,2.43-.33,.96-.68,2-1.06,3.11-.38,1.12-.73,2.15-1.06,3.09-.33,.94-.61,1.73-.83,2.36-.22,.63-.33,.93-.33,.9-1.73,5-4.96,7.5-9.67,7.5h-28.32c-.76,0-1.34-.29-1.75-.87-.41-.58-.49-1.22-.24-1.91Z"/><path class="cls-4" d="M106.54,31.52l6.18-17.98c.35-1.04,.85-2.01,1.51-2.9,.66-.9,1.45-1.69,2.38-2.38,.93-.69,1.97-1.23,3.14-1.63,1.16-.39,2.41-.59,3.73-.59h20.91c1.23,0,2.34,.18,3.33,.54,.99,.36,1.79,.87,2.41,1.53,.61,.66,1.01,1.45,1.2,2.36,.19,.91,.09,1.93-.28,3.07l-6.23,17.98c-.35,1.01-.84,1.97-1.49,2.88-.65,.91-1.43,1.72-2.36,2.41-.93,.69-1.97,1.24-3.14,1.65-1.16,.41-2.42,.61-3.78,.61h-20.86c-1.23,0-2.34-.18-3.33-.54-.99-.36-1.8-.87-2.43-1.53-.63-.66-1.04-1.45-1.23-2.38-.19-.93-.08-1.96,.33-3.09Zm11.94-.42h14.68c.5,0,.8-.2,.9-.61l5.52-15.86c.13-.41-.05-.61-.52-.61h-19.21c-.25,0-.42,.12-.52,.35-.09,.24-.05,.43,.14,.59l2.93,2.64-4.44,12.88c-.13,.41,.05,.61,.52,.61Z"/><path class="cls-4" d="M149.63,36.29l6.47-18.59h11.04c-.13,.35-.29,.8-.5,1.37-.21,.57-.42,1.2-.66,1.89-.24,.69-.48,1.42-.73,2.19-.25,.77-.5,1.53-.76,2.29l-1.98,5.66h13.21c.5,0,.8-.2,.9-.61l5.47-15.86c.19-.41,.03-.61-.47-.61h-24.3c.16-.44,.31-.85,.45-1.23,.14-.38,.29-.74,.45-1.09,.22-.63,.42-1.21,.61-1.75,.19-.53,.31-.88,.38-1.04l-3.07-1.89c-.25-.16-.33-.36-.24-.61,.09-.25,.27-.38,.52-.38h39.74l-8.78,25.48c-.38,1.04-.9,2.01-1.56,2.93-.66,.91-1.45,1.71-2.36,2.38-.91,.68-1.94,1.22-3.09,1.63-1.15,.41-2.4,.61-3.75,.61h-25.01c-.76,0-1.34-.29-1.75-.87-.41-.58-.49-1.22-.24-1.91Z"/></g><g class="cls-5"><path class="cls-2" d="M176.07,6.02c6.2,0,12.4,0,18.59,0,1.5,0,1.55,.07,1.06,1.46-2.18,6.25-4.38,12.49-6.51,18.75-.33,.97-.79,1.31-1.81,1.18-2.85-.37-5.71-.67-8.57-.99-.91-.1-.72-.65-.53-1.21,1.1-3.18,2.21-6.36,3.3-9.55,.52-1.52,.47-1.58-1.19-1.58-7.16,0-14.31,0-21.47,0-1.73,0-1.76-.06-1.13-1.64,.07-.18,.15-.37,.23-.55q1.13-2.79-1.37-4.43c-.36-.24-.86-.45-.68-.98,.2-.58,.78-.46,1.24-.46,6.28,0,12.56,0,18.83,0Z"/><path class="cls-2" d="M133.86,6.02c3.64,0,7.28-.07,10.91,.03,2.33,.06,4.54,.66,5.91,2.8,.89,1.39,.97,2.91,.45,4.45-.97,2.85-1.98,5.69-2.95,8.54-.23,.68-.6,.93-1.33,.85-2.97-.36-5.95-.68-8.93-1-.81-.09-.72-.57-.53-1.11,.62-1.76,1.21-3.52,1.86-5.27,.33-.89,.08-1.23-.88-1.23-5.96,.02-11.92,0-17.87,.01-.35,0-.79-.08-.95,.32-.16,.4,.21,.64,.46,.89,.45,.45,.86,.99,1.4,1.3,1.23,.7,.89,1.59,.45,2.53-.21,.46-.55,.64-1.06,.58-2.93-.36-5.87-.71-8.8-1.06-.56-.07-1.12-.15-.82-.92,1.01-2.61,1.49-5.42,3.41-7.65,2.27-2.64,5.15-3.97,8.59-4.04,3.56-.08,7.12-.02,10.68-.02Z"/><path class="cls-2" d="M86.39,6.02c6.48,0,12.96,0,19.44,0,1.55,0,1.54,0,1.05,1.42-.5,1.46-.99,2.93-1.49,4.39-.61,1.78-1.26,2.25-3.18,2.25-8.6,0-17.2-.05-25.8,.04-2.85,.03-5.66-.19-8.47-.52-1.29-.15-1.41-.36-1.02-1.6,.1-.3,.21-.6,.29-.91,.6-2.33,1.05-1.84-1.12-3.49-.39-.3-1.05-.53-.78-1.17,.25-.58,.9-.4,1.4-.4,6.56,0,13.12,0,19.68,0Z"/><path class="cls-2" d="M161.59,17.64c1.48,0,2.96,.01,4.44,0,.73-.01,1.05,.2,.77,.98-.62,1.75-1.21,3.52-1.8,5.29-.18,.55-.46,.87-1.13,.79-2.97-.37-5.94-.74-8.92-1.06-.78-.08-.96-.38-.71-1.08,.51-1.37,1-2.75,1.47-4.14,.22-.65,.7-.78,1.31-.78,1.52,.01,3.04,0,4.56,0Z"/></g><path class="cls-1" d="M22.13,19.46l-8,2.31c-1.53,.44-1.78,2.53-.38,3.19l2.83,1.34c.34,.16,.61,.43,.77,.77l1.34,2.83c.66,1.4,2.75,1.15,3.19-.38l2.31-8c.37-1.28-.77-2.42-2.05-2.05Z"/><path class="cls-3" d="M21.42,20.53l-6.44,1.72c-1.23,.33-1.4,2.02-.25,2.58l2.31,1.13c.28,.14,.5,.36,.63,.63l1.13,2.31c.56,1.15,2.25,.98,2.58-.25l1.72-6.44c.28-1.03-.67-1.97-1.69-1.69Z"/><g><path class="cls-3" d="M62.02,47.98v-1.62h4.01c.12,0,.25,.03,.38,.09,.13,.06,.24,.14,.34,.24,.1,.1,.18,.22,.24,.34,.06,.13,.09,.26,.09,.39v1.99c0,.13-.03,.26-.09,.39-.06,.13-.14,.24-.24,.34s-.22,.18-.34,.24c-.13,.06-.25,.09-.38,.09h-6.08c-.12,0-.25-.03-.38-.09-.13-.06-.24-.14-.34-.24-.1-.1-.18-.22-.24-.34-.06-.13-.09-.26-.09-.39v-4.5c0-.13,.03-.26,.09-.39,.06-.13,.14-.24,.24-.34,.1-.1,.22-.18,.34-.24,.13-.06,.25-.09,.38-.09h7.14v1.78h-6.29v3.07h4.39v-.73h-3.17Z"/><path class="cls-4" d="M74.22,48.7v-4.85h1.9v5.57c0,.13-.03,.26-.09,.39-.06,.13-.14,.24-.24,.34s-.22,.18-.34,.24c-.13,.06-.25,.09-.38,.09h-6.08c-.12,0-.25-.03-.38-.09-.13-.06-.24-.14-.34-.24-.1-.1-.18-.22-.24-.34-.06-.13-.09-.26-.09-.39v-5.57h1.9v4.85h4.39Z"/><path class="cls-4" d="M78.7,50.48h-2.11l2.72-5.69c.3-.63,.75-.95,1.36-.95h.84c.3,0,.54,.08,.72,.24,.18,.16,.34,.4,.49,.71l2.72,5.69h-2.11l-.53-1.11h-3.57l-.53,1.11Zm2.32-4.6l-1.02,1.91h2.04l-1.03-1.91Z"/><path class="cls-4" d="M91.85,46.36v-.73h-5.8v-1.78h6.65c.12,0,.25,.03,.38,.09,.13,.06,.24,.14,.34,.24,.1,.1,.18,.22,.24,.34,.06,.13,.09,.26,.09,.39v1.99c0,.13-.03,.26-.09,.39-.06,.13-.14,.24-.24,.34s-.22,.18-.34,.24c-.13,.06-.25,.09-.38,.09h-.54l1.82,2.51h-2.15l-1.94-2.51h-1.94v2.51h-1.9v-4.13h5.8Z"/><path class="cls-4" d="M94.58,46.36h1.9v2.35h4.39v-3.07h-6.29v-1.78h7.14c.12,0,.25,.03,.38,.09,.13,.06,.24,.14,.34,.24,.1,.1,.18,.22,.24,.34,.06,.13,.09,.26,.09,.39v4.5c0,.13-.03,.26-.09,.39-.06,.13-.14,.24-.24,.34s-.22,.18-.34,.24c-.13,.06-.25,.09-.38,.09h-7.14v-4.13Z"/><path class="cls-4" d="M105.53,50.48h-1.91v-6.63h1.91v6.63Z"/><path class="cls-4" d="M108.25,50.48h-2.11l2.72-5.69c.3-.63,.75-.95,1.36-.95h.84c.3,0,.54,.08,.72,.24,.18,.16,.34,.4,.49,.71l2.72,5.69h-2.11l-.53-1.11h-3.57l-.53,1.11Zm2.32-4.6l-1.02,1.91h2.04l-1.03-1.91Z"/><path class="cls-4" d="M117.11,43.86c.15,.02,.34,.11,.57,.27,.23,.16,.53,.41,.9,.74s.82,.75,1.37,1.27c.54,.51,1.19,1.13,1.96,1.85v-4.14h1.9v5.8c0,.11-.03,.21-.09,.3-.06,.1-.13,.18-.23,.26-.1,.08-.21,.14-.34,.19-.13,.05-.27,.07-.41,.07h-.37s-.06,0-.07-.01c-.14-.02-.33-.11-.57-.28-.24-.17-.55-.42-.94-.75-.38-.33-.84-.76-1.39-1.27-.54-.51-1.18-1.13-1.92-1.84v4.15h-1.9v-5.8c0-.1,.03-.2,.09-.3,.06-.1,.13-.19,.23-.27,.1-.08,.21-.14,.34-.19,.13-.05,.27-.07,.42-.07h.36s.07,0,.08,.01Z"/><path class="cls-3" d="M136.96,43.94c.13,.06,.24,.14,.34,.24,.1,.1,.18,.22,.24,.34,.06,.13,.09,.26,.09,.39v4.5c0,.13-.03,.26-.09,.39-.06,.13-.14,.24-.24,.34-.1,.1-.22,.18-.34,.24-.13,.06-.25,.09-.38,.09h-6.11c-.12,0-.25-.03-.38-.09-.13-.06-.24-.14-.34-.24-.1-.1-.18-.22-.24-.34-.06-.13-.09-.26-.09-.39v-4.5c0-.13,.03-.26,.09-.39,.06-.13,.14-.24,.24-.34s.22-.18,.34-.24c.13-.06,.25-.09,.38-.09h6.11c.12,0,.25,.03,.38,.09Zm-5.64,1.69v3.07h4.42v-3.07h-4.42Z"/><path class="cls-4" d="M138.48,50.48v-5.57c0-.13,.03-.26,.09-.39,.06-.13,.14-.24,.24-.34s.22-.18,.34-.24c.13-.06,.25-.09,.38-.09h6.38v1.78h-5.54v.73h5.53v1.62h-5.53v2.51h-1.9Z"/><path class="cls-3" d="M151.52,46.36h1.9v2.35h4.39v-3.07h-6.29v-1.78h7.14c.12,0,.25,.03,.38,.09,.13,.06,.24,.14,.34,.24,.1,.1,.18,.22,.24,.34,.06,.13,.09,.26,.09,.39v4.5c0,.13-.03,.26-.09,.39-.06,.13-.14,.24-.24,.34s-.22,.18-.34,.24c-.13,.06-.25,.09-.38,.09h-7.14v-4.13Z"/><path class="cls-2" d="M161.24,50.39c-.13-.06-.24-.14-.34-.24-.1-.1-.18-.22-.24-.34-.06-.13-.09-.26-.09-.39v-4.5c0-.13,.03-.26,.09-.39,.06-.13,.14-.24,.24-.34,.1-.1,.22-.18,.34-.24,.13-.06,.25-.09,.38-.09h6.38v1.78h-5.54v.73h5.53v1.62h-5.53v.73h5.54v1.78h-6.38c-.12,0-.25-.03-.38-.09Z"/><path class="cls-2" d="M169.52,50.39c-.13-.06-.24-.14-.34-.24-.1-.1-.18-.22-.24-.34-.06-.13-.09-.26-.09-.39v-4.5c0-.13,.03-.26,.09-.39,.06-.13,.14-.24,.24-.34s.22-.18,.34-.24c.13-.06,.25-.09,.38-.09h6.08c.12,0,.25,.03,.38,.09,.13,.06,.24,.14,.34,.24,.1,.1,.18,.22,.24,.34,.06,.13,.09,.26,.09,.39v1.5h-1.9v-.79h-4.39v3.07h4.39v-.79h1.9v1.5c0,.13-.03,.26-.09,.39-.06,.13-.14,.24-.24,.34-.1,.1-.22,.18-.34,.24-.13,.06-.25,.09-.38,.09h-6.08c-.12,0-.25-.03-.38-.09Z"/><path class="cls-2" d="M179.78,46.36h1.79l2.19-2.51h2.36l-2.88,3.32,2.88,3.31h-2.36l-2.19-2.51h-1.79v2.51h-1.9v-6.63h1.9v2.51Z"/><path class="cls-2" d="M187.78,47.98c-.12,0-.25-.03-.38-.09-.13-.06-.24-.14-.34-.24-.1-.1-.18-.22-.24-.34-.06-.13-.09-.26-.09-.39v-1.99c0-.13,.03-.26,.09-.39,.06-.13,.14-.24,.24-.34,.1-.1,.22-.18,.34-.24,.13-.06,.25-.09,.38-.09h7v1.78h-6.16v.73h5.1c.12,0,.25,.03,.38,.09,.13,.06,.24,.14,.34,.24,.1,.1,.18,.22,.24,.34s.09,.26,.09,.39v1.99c0,.13-.03,.26-.09,.39-.06,.13-.14,.24-.24,.34-.1,.1-.22,.18-.34,.24-.13,.06-.25,.09-.38,.09h-7v-1.78h6.16v-.73h-5.1Z"/></g><g><path class="cls-4" d="M22.51,43.05c-3.9-.35-7.39-2.88-8.85-6.59l-3.16-8.02c-1.44-3.66-5.18-5.88-9.08-5.41-.7,.08-1.33-.41-1.41-1.11-.08-.7,.41-1.33,1.11-1.41,5.05-.61,9.88,2.26,11.75,7l3.16,8.02c1.28,3.24,4.59,5.29,8.06,5l16.32-1.64c.7-.07,1.32,.44,1.39,1.13,.07,.7-.44,1.32-1.13,1.39l-16.34,1.65c-.61,.05-1.21,.05-1.8,0Z"/><circle class="cls-4" cx="23.37" cy="47.24" r="3" transform="translate(-24.95 26.2) rotate(-40.14)"/><circle class="cls-4" cx="35.5" cy="45.95" r="3" transform="translate(-21.16 33.24) rotate(-39.67)"/></g></svg>