<svg width="22" height="22" viewBox="0 0 22 22" fill="none" xmlns="http://www.w3.org/2000/svg">
<g id="Delete">
<path id="Vector" d="M2.75 4.321L3.86111 19.4725C3.91389 20.348 4.66111 20.9877 5.63889 20.9877H15.8611C16.8428 20.9877 17.5761 20.348 17.6389 19.4725L18.75 4.321" stroke="white" stroke-width="1.5" stroke-linecap="round" stroke-linejoin="round"/>
<g id="Vector_2">
<path d="M0.75 4.321H20.75H0.75Z" fill="white"/>
<path d="M0.75 4.321H20.75" stroke="white" stroke-width="1.5" stroke-miterlimit="10" stroke-linecap="round"/>
</g>
<path id="Vector_3" d="M7.19444 4.01798V2.12404C7.19393 1.97469 7.22807 1.82672 7.29489 1.68865C7.36172 1.55059 7.45991 1.42514 7.58382 1.31953C7.70774 1.21392 7.85493 1.13024 8.01693 1.07329C8.17893 1.01633 8.35254 0.987238 8.52778 0.987676H12.9722C13.1475 0.987238 13.3211 1.01633 13.4831 1.07329C13.6451 1.13024 13.7923 1.21392 13.9162 1.31953C14.0401 1.42514 14.1383 1.55059 14.2051 1.68865C14.2719 1.82672 14.3061 1.97469 14.3056 2.12404V4.01798M10.75 7.04828V17.6543M6.75 7.04828L7.19444 17.6543M14.75 7.04828L14.3056 17.6543" stroke="white" stroke-width="1.5" stroke-linecap="round" stroke-linejoin="round"/>
</g>
</svg>
