<svg width="20" height="16" viewBox="0 0 20 16" fill="none" xmlns="http://www.w3.org/2000/svg">
<g id="Disable">
<path id="Vector" d="M17.0008 0.987663C16.9187 0.98753 16.8374 1.00365 16.7616 1.03509C16.6857 1.06654 16.6169 1.11268 16.559 1.17087L2.80898 14.9209C2.69672 15.039 2.63506 15.1964 2.63715 15.3594C2.63923 15.5223 2.7049 15.678 2.82015 15.7933C2.9354 15.9085 3.09112 15.9742 3.25409 15.9763C3.41707 15.9784 3.57441 15.9167 3.69258 15.8045L17.4426 2.05446C17.5299 1.96705 17.5894 1.85572 17.6135 1.73452C17.6376 1.61332 17.6252 1.48769 17.5779 1.37353C17.5307 1.25936 17.4506 1.16177 17.3479 1.09309C17.2451 1.02441 17.1244 0.98772 17.0008 0.987663ZM10.1125 3.48766C8.49179 3.48766 6.9289 3.96735 5.46719 4.91344C4.13633 5.77282 2.93828 7.00368 2.00234 8.46813V8.47126C2.78125 9.58727 3.63437 10.531 4.55078 11.292C4.55907 11.2989 4.56583 11.3075 4.57064 11.3171C4.57545 11.3268 4.57819 11.3374 4.57871 11.3482C4.57922 11.359 4.57749 11.3698 4.57362 11.3798C4.56976 11.3899 4.56384 11.3991 4.55625 11.4068L3.77812 12.1838C3.7643 12.1977 3.74573 12.2059 3.72611 12.2068C3.70649 12.2077 3.68727 12.2011 3.67226 12.1884C2.69883 11.3681 1.79531 10.3619 0.973826 9.18376C0.832492 8.9809 0.754654 8.74061 0.750202 8.49342C0.745751 8.24622 0.814887 8.00329 0.948826 7.79548C1.98047 6.18102 3.3082 4.82126 4.78789 3.86384C6.4539 2.78454 8.24687 2.23766 10.1125 2.23766C11.1195 2.24079 12.1194 2.40673 13.0734 2.72907C13.086 2.73334 13.0973 2.74075 13.1062 2.7506C13.1152 2.76045 13.1214 2.77241 13.1244 2.78535C13.1274 2.7983 13.1271 2.8118 13.1234 2.82457C13.1198 2.83735 13.1129 2.84898 13.1035 2.85837L12.2605 3.70133C12.2411 3.72027 12.2171 3.73382 12.1909 3.74067C12.1647 3.74752 12.1371 3.74742 12.1109 3.7404C11.4581 3.57229 10.7866 3.48737 10.1125 3.48766ZM19.2992 9.16735C18.2656 10.7658 16.9246 12.1236 15.4215 13.0943C13.7586 14.1693 11.9227 14.7377 10.1125 14.7377C9.11616 14.7359 8.12722 14.5665 7.18711 14.2365C7.17458 14.2321 7.16337 14.2247 7.15453 14.2148C7.1457 14.2049 7.13952 14.1929 7.13659 14.18C7.13366 14.167 7.13407 14.1536 7.13778 14.1408C7.14149 14.1281 7.14839 14.1165 7.15781 14.1072L7.99961 13.2654C8.0192 13.2461 8.04353 13.2324 8.07014 13.2255C8.09675 13.2187 8.1247 13.2189 8.15117 13.2263C8.79061 13.3993 9.45007 13.4872 10.1125 13.4877C11.702 13.4877 13.2602 13.0021 14.7434 12.0424C16.0992 11.1674 17.3113 9.93766 18.2496 8.48766C18.2503 8.48677 18.2507 8.48567 18.2507 8.48454C18.2507 8.48341 18.2503 8.48231 18.2496 8.48141C17.5685 7.40918 16.7233 6.4505 15.7449 5.6404C15.7365 5.63349 15.7297 5.62492 15.7248 5.61522C15.7199 5.60552 15.7171 5.59492 15.7166 5.58407C15.716 5.57323 15.7177 5.56239 15.7216 5.55225C15.7255 5.54211 15.7314 5.53288 15.7391 5.52516L16.5164 4.74821C16.5302 4.73432 16.5486 4.7261 16.5682 4.72516C16.5877 4.72422 16.6068 4.73063 16.6219 4.74313C17.6664 5.62262 18.5706 6.6564 19.3031 7.80876C19.4326 8.01182 19.5011 8.24779 19.5004 8.48863C19.4997 8.72946 19.4299 8.96503 19.2992 9.16735Z" fill="#E3EAF4"/>
<path id="Vector_2" d="M10.1258 12.2377C9.8449 12.2378 9.56488 12.2064 9.29102 12.1439C9.27719 12.141 9.2644 12.1345 9.254 12.1249C9.24361 12.1153 9.236 12.1031 9.23199 12.0896C9.22799 12.076 9.22773 12.0617 9.23124 12.048C9.23476 12.0343 9.24192 12.0218 9.25196 12.0119L13.65 7.61501C13.6599 7.60497 13.6724 7.59781 13.6861 7.59429C13.6998 7.59078 13.7142 7.59104 13.7277 7.59505C13.7413 7.59905 13.7535 7.60666 13.763 7.61705C13.7726 7.62745 13.7792 7.64024 13.782 7.65408C13.9073 8.20328 13.9071 8.77364 13.7817 9.32279C13.6562 9.87194 13.4087 10.3858 13.0574 10.8261C12.7062 11.2665 12.2602 11.6221 11.7527 11.8664C11.2451 12.1108 10.6891 12.2377 10.1258 12.2377ZM6.60157 9.36033C6.59164 9.37037 6.57916 9.37753 6.56548 9.38105C6.5518 9.38456 6.53742 9.3843 6.52387 9.3803C6.51032 9.37629 6.49812 9.36868 6.48855 9.35829C6.47898 9.34789 6.47241 9.3351 6.46954 9.32126C6.32788 8.70238 6.34567 8.05766 6.52124 7.44752C6.69681 6.83739 7.02441 6.28182 7.47335 5.83289C7.92229 5.38395 8.47785 5.05634 9.08799 4.88077C9.69812 4.7052 10.3428 4.68741 10.9617 4.82908C10.9756 4.83195 10.9884 4.83852 10.9988 4.84809C11.0091 4.85765 11.0168 4.86986 11.0208 4.88341C11.0248 4.89695 11.025 4.91133 11.0215 4.92502C11.018 4.9387 11.0108 4.95117 11.0008 4.96111L6.60157 9.36033Z" fill="#E3EAF4"/>
</g>
</svg>
